{
	"accessors" : 
	[
		{
			"bufferView" : 2,
			"byteOffset" : 0,
			"componentType" : 5126,
			"count" : 1454,
			"max" : 
			[
				0.9075471758842468,
				0.05284162983298302,
				0.0328759141266346,
				1
			],
			"min" : 
			[
				0.006584956776350737,
				0.006584956776350737,
				0.006584956776350737,
				1
			],
			"name" : "accessor_color_m0-PolyPaper8_-141120",
			"type" : "VEC4"
		},
		{
			"bufferView" : 0,
			"byteOffset" : 0,
			"componentType" : 5123,
			"count" : 2448,
			"max" : 
			[
				1453
			],
			"min" : 
			[
				0
			],
			"name" : "accessor_indices_0_m0-PolyPaper8_-141120",
			"type" : "SCALAR"
		},
		{
			"bufferView" : 1,
			"byteOffset" : 17448,
			"componentType" : 5126,
			"count" : 1454,
			"max" : 
			[
				1,
				1,
				1
			],
			"min" : 
			[
				-1,
				-1,
				-1
			],
			"name" : "accessor_normal_m0-PolyPaper8_-141120",
			"type" : "VEC3"
		},
		{
			"bufferView" : 1,
			"byteOffset" : 0,
			"componentType" : 5126,
			"count" : 1454,
			"max" : 
			[
				0.7999823,
				1.239997,
				0.4100261
			],
			"min" : 
			[
				-0.6800728,
				0.6099248,
				-0.2399795
			],
			"name" : "accessor_position_m0-PolyPaper8_-141120",
			"type" : "VEC3"
		}
	],
	"asset" : 
	{
		"copyright" : "Unknown",
		"generator" : "glTF 1-to-2 Upgrader for Google Blocks",
		"version" : "2.0"
	},
	"bufferViews" : 
	[
		{
			"buffer" : 0,
			"byteLength" : 4896,
			"byteOffset" : 0,
			"name" : "ushortBufferView",
			"target" : 34963
		},
		{
			"buffer" : 0,
			"byteLength" : 34896,
			"byteOffset" : 4896,
			"byteStride" : 12,
			"name" : "vec3BufferView",
			"target" : 34962
		},
		{
			"buffer" : 0,
			"byteLength" : 23264,
			"byteOffset" : 39792,
			"byteStride" : 16,
			"name" : "vec4BufferView",
			"target" : 34962
		}
	],
	"buffers" : 
	[
		{
			"byteLength" : 63056,
			"name" : "model",
			"uri" : "model.bin"
		}
	],
	"materials" : 
	[
		{
			"alphaMode" : "OPAQUE",
			"doubleSided" : false,
			"name" : "BlocksPaper",
			"pbrMetallicRoughness" : 
			{
				"baseColorFactor" : 
				[
					1,
					1,
					1,
					1
				],
				"metallicFactor" : 0,
				"roughnessFactor" : 0.6
			}
		},
		{
			"alphaMode" : "BLEND",
			"doubleSided" : false,
			"name" : "BlocksGlass",
			"pbrMetallicRoughness" : 
			{
				"baseColorFactor" : 
				[
					0.2,
					0.2,
					1,
					0.3
				],
				"metallicFactor" : 1,
				"roughnessFactor" : 0.4
			}
		},
		{
			"alphaMode" : "OPAQUE",
			"doubleSided" : true,
			"name" : "BlocksGem",
			"pbrMetallicRoughness" : 
			{
				"baseColorFactor" : 
				[
					1,
					0.4,
					1,
					1
				],
				"metallicFactor" : 0,
				"roughnessFactor" : 0.1
			}
		}
	],
	"meshes" : 
	[
		{
			"name" : "mesh_m0-PolyPaper8_-141120",
			"primitives" : 
			[
				{
					"attributes" : 
					{
						"COLOR_0" : 0,
						"NORMAL" : 2,
						"POSITION" : 3
					},
					"indices" : 1,
					"material" : 0,
					"mode" : 4
				}
			]
		}
	],
	"nodes" : 
	[
		{
			"matrix" : 
			[
				1,
				0,
				0,
				0,
				0,
				1,
				0,
				0,
				0,
				0,
				1,
				0,
				0,
				0,
				0,
				1
			],
			"mesh" : 0,
			"name" : "node_MeshObject204901376-PolyPaper8"
		}
	],
	"scene" : 0,
	"scenes" : 
	[
		{
			"extras" : {},
			"name" : "defaultScene",
			"nodes" : 
			[
				0
			]
		}
	]
}